<?xml version="1.0" encoding="utf-8"?>
<!-- Generator: Adobe Illustrator 25.0.0, SVG Export Plug-In . SVG Version: 6.00 Build 0)  -->
<svg version="1.1" id="Capa_1" xmlns="http://www.w3.org/2000/svg" xmlns:xlink="http://www.w3.org/1999/xlink" x="0px" y="0px"
	 viewBox="0 0 37.946 28.346" enable-background="new 0 0 37.946 28.346" xml:space="preserve">
<path fill="#D0CFD0" d="M36.295,5.474c-0.416-1.556-1.641-2.781-3.196-3.196c-2.819-0.755-14.125-0.755-14.125-0.755
	s-11.306,0-14.125,0.755C3.293,2.693,2.067,3.918,1.652,5.474c-0.756,2.819-0.756,8.702-0.756,8.702s0,5.883,0.756,8.702
	c0.416,1.556,1.641,2.781,3.196,3.196c2.819,0.756,14.125,0.756,14.125,0.756s11.306,0,14.125-0.756
	c1.556-0.416,2.781-1.641,3.196-3.196c0.755-2.819,0.755-8.702,0.755-8.702S37.05,8.293,36.295,5.474z M15.358,19.599V8.753
	l9.393,5.423L15.358,19.599z"/>
</svg>
