<?xml version="1.0" encoding="utf-8"?>
<!-- Generator: Adobe Illustrator 25.0.0, SVG Export Plug-In . SVG Version: 6.00 Build 0)  -->
<svg version="1.1" id="Capa_1" xmlns="http://www.w3.org/2000/svg" xmlns:xlink="http://www.w3.org/1999/xlink" x="0px" y="0px"
	 viewBox="0 0 28.346 28.346" enable-background="new 0 0 28.346 28.346" xml:space="preserve">
<path fill="#D0CFD0" d="M8.8,1.283C7.42,1.348,6.477,1.568,5.653,1.892c-0.853,0.332-1.576,0.778-2.295,1.5S2.196,4.837,1.866,5.691
	C1.547,6.517,1.331,7.461,1.27,8.842c-0.061,1.381-0.074,1.825-0.068,5.348c0.007,3.523,0.022,3.965,0.089,5.349
	c0.066,1.38,0.285,2.322,0.609,3.147c0.333,0.853,0.778,1.575,1.5,2.295c0.722,0.719,1.445,1.161,2.301,1.492
	c0.825,0.319,1.769,0.536,3.15,0.597s1.825,0.074,5.347,0.068s3.965-0.022,5.349-0.088c1.384-0.066,2.321-0.287,3.146-0.609
	c0.853-0.334,1.576-0.778,2.295-1.501c0.719-0.722,1.162-1.446,1.491-2.301c0.32-0.825,0.537-1.769,0.597-3.149
	c0.06-1.385,0.075-1.827,0.068-5.349s-0.023-3.964-0.088-5.348c-0.066-1.383-0.285-2.323-0.609-3.148
	c-0.333-0.853-0.778-1.575-1.5-2.295c-0.722-0.72-1.446-1.162-2.301-1.491c-0.826-0.319-1.769-0.537-3.15-0.597
	c-1.381-0.06-1.825-0.075-5.349-0.068C10.625,1.2,10.184,1.215,8.8,1.283 M8.952,24.735C7.687,24.68,7,24.47,6.543,24.294
	c-0.606-0.234-1.038-0.516-1.494-0.968c-0.456-0.452-0.736-0.885-0.973-1.49c-0.178-0.458-0.392-1.144-0.451-2.409
	c-0.064-1.367-0.078-1.778-0.085-5.241c-0.008-3.464,0.006-3.874,0.066-5.241C3.659,7.682,3.87,6.994,4.046,6.537
	C4.28,5.93,4.561,5.499,5.014,5.043c0.453-0.456,0.885-0.737,1.49-0.973c0.457-0.179,1.143-0.391,2.408-0.451
	c1.368-0.065,1.778-0.078,5.241-0.085s3.874,0.005,5.243,0.066c1.264,0.055,1.952,0.264,2.409,0.441
	c0.606,0.234,1.038,0.514,1.494,0.968c0.456,0.454,0.737,0.884,0.974,1.491c0.179,0.456,0.391,1.142,0.451,2.407
	c0.065,1.368,0.08,1.778,0.086,5.241c0.006,3.463-0.006,3.874-0.066,5.241c-0.055,1.265-0.265,1.952-0.441,2.41
	c-0.234,0.606-0.515,1.038-0.968,1.493c-0.453,0.456-0.885,0.736-1.49,0.973c-0.457,0.178-1.143,0.391-2.407,0.451
	c-1.368,0.064-1.778,0.078-5.242,0.085S10.32,24.794,8.952,24.735 M19.528,7.231c0.001,0.86,0.7,1.556,1.559,1.554
	c0.86-0.001,1.556-0.7,1.554-1.559s-0.7-1.556-1.559-1.554c0,0,0,0-0.001,0C20.222,5.674,19.526,6.372,19.528,7.231 M7.512,14.178
	c0.007,3.679,2.995,6.655,6.674,6.648s6.656-2.995,6.649-6.674s-2.996-6.656-6.675-6.648C10.481,7.511,7.505,10.499,7.512,14.178
	 M9.849,14.173c-0.005-2.388,1.928-4.328,4.316-4.333s4.328,1.928,4.333,4.316c0.005,2.388-1.928,4.328-4.316,4.333
	c-2.388,0.005-4.328-1.927-4.333-4.315C9.849,14.174,9.849,14.174,9.849,14.173"/>
</svg>
