<?xml version="1.0" encoding="utf-8"?>
<!-- Generator: Adobe Illustrator 25.0.0, SVG Export Plug-In . SVG Version: 6.00 Build 0)  -->
<svg version="1.1" id="Capa_1" xmlns="http://www.w3.org/2000/svg" xmlns:xlink="http://www.w3.org/1999/xlink" x="0px" y="0px"
	 viewBox="0 0 26.746 28.346" enable-background="new 0 0 26.746 28.346" xml:space="preserve">
<path fill="#D0CFD0" d="M24.167,1.833H2.58c-0.854,0-1.547,0.692-1.547,1.547v21.587c0,0.854,0.692,1.547,1.547,1.547h21.587
	c0.854,0,1.547-0.692,1.547-1.547V3.38C25.713,2.525,25.021,1.833,24.167,1.833z M8.453,22.871H4.794V11.111h3.659V22.871z
	 M6.624,9.502c-1.174,0-2.12-0.95-2.12-2.121c0-1.169,0.946-2.118,2.12-2.118c1.17,0,2.118,0.95,2.118,2.118
	C8.743,8.553,7.794,9.502,6.624,9.502z M22.141,22.871H18.49v-5.719c0-1.364-0.027-3.119-1.9-3.119c-1.902,0-2.192,1.486-2.192,3.02
	v5.818h-3.651V11.111h3.504v1.607h0.05c0.488-0.925,1.681-1.9,3.459-1.9c3.698,0,4.382,2.435,4.382,5.603V22.871z"/>
</svg>
