<?xml version="1.0" encoding="utf-8"?>
<!-- Generator: Adobe Illustrator 25.0.0, SVG Export Plug-In . SVG Version: 6.00 Build 0)  -->
<svg version="1.1" id="Capa_1" xmlns="http://www.w3.org/2000/svg" xmlns:xlink="http://www.w3.org/1999/xlink" x="0px" y="0px"
	 viewBox="0 0 23.946 28.346" enable-background="new 0 0 23.946 28.346" xml:space="preserve">
<g>
	<g>
		<path fill="#D0CFD0" d="M19.52,6.78c-1.329-0.867-2.289-2.254-2.588-3.87c-0.065-0.349-0.1-0.709-0.1-1.077h-4.243l-0.007,17.005
			c-0.071,1.904-1.639,3.433-3.56,3.433c-0.597,0-1.159-0.149-1.654-0.41c-1.135-0.597-1.912-1.787-1.912-3.157
			c0-1.967,1.6-3.567,3.567-3.567c0.367,0,0.719,0.061,1.052,0.165v-3.327V10.97c-0.345-0.047-0.695-0.076-1.052-0.076
			c-4.306,0-7.81,3.504-7.81,7.81c0,2.642,1.32,4.98,3.334,6.394c1.269,0.891,2.812,1.415,4.476,1.415c4.306,0,7.81-3.503,7.81-7.81
			v-8.623c1.664,1.194,3.703,1.898,5.903,1.898V8.681V7.736C21.549,7.736,20.446,7.384,19.52,6.78z"/>
	</g>
</g>
</svg>
