<?xml version="1.0" encoding="utf-8"?>
<!-- Generator: Adobe Illustrator 25.0.0, SVG Export Plug-In . SVG Version: 6.00 Build 0)  -->
<svg version="1.1" id="Capa_1" xmlns="http://www.w3.org/2000/svg" xmlns:xlink="http://www.w3.org/1999/xlink" x="0px" y="0px"
	 viewBox="0 0 35.146 28.346" enable-background="new 0 0 35.146 28.346" xml:space="preserve">
<g id="Logo_00000054253823420503151670000006822145853509110185_">
	<path id="white_background_00000024722987466302208490000009433627842484222631_" fill="#D0CFD0" d="M30.493,7.545
		c0.02,0.286,0.02,0.573,0.02,0.862c0,8.809-6.706,18.968-18.968,18.968V27.37c-3.622,0.005-7.169-1.032-10.219-2.989
		c0.527,0.063,1.056,0.095,1.587,0.096c3.002,0.003,5.918-1.005,8.28-2.859c-2.853-0.054-5.354-1.914-6.228-4.63
		c0.999,0.193,2.029,0.153,3.01-0.115c-3.11-0.628-5.348-3.361-5.348-6.534c0-0.029,0-0.057,0-0.084
		c0.927,0.516,1.964,0.803,3.026,0.834C2.723,9.131,1.82,5.235,3.589,2.188c3.385,4.165,8.379,6.697,13.739,6.965
		c-0.537-2.315,0.197-4.742,1.929-6.369c2.685-2.524,6.908-2.395,9.432,0.289c1.493-0.294,2.924-0.842,4.233-1.618
		c-0.498,1.543-1.539,2.854-2.931,3.687c1.321-0.156,2.612-0.51,3.828-1.049C32.925,5.433,31.798,6.601,30.493,7.545z"/>
</g>
</svg>
